<?xml version="1.0" encoding="UTF-8"?>
<svg id="Layer_2" xmlns="http://www.w3.org/2000/svg" viewBox="0 0 22.41 22.32">
  <defs>
    <style>
      .cls-1 {
        fill: #fff;
      }

      .cls-2 {
        fill: #357AF4;
      }
    </style>
  </defs>
  <g id="Layer_1-2" data-name="Layer_1">
    <g>
      <path class="cls-2" d="M22.41,10.11c-.36.58-.8,1.3-1.26,2-.17.25-.2.48-.1.77.23.66.44,1.33.66,1.99.17.49.14.53-.32.78-.62.34-1.24.7-1.83,1.09-.17.11-.31.35-.36.56-.16.75-.28,1.5-.38,2.26-.04.26-.15.31-.38.32-.84.03-1.68.07-2.52.14-.14.01-.3.15-.4.28-.5.64-.98,1.31-1.49,1.95-.04.06-.2.09-.26.06-.57-.28-1.12-.58-1.69-.86-.45-.23-.91-.35-1.41-.1-.63.31-1.27.59-1.89.92-.24.12-.35.05-.48-.13-.43-.58-.88-1.15-1.3-1.75-.19-.27-.43-.4-.74-.41-.39-.01-.78-.01-1.17-.03-.4-.02-.81-.02-1.2-.09-.12-.02-.26-.23-.29-.37-.13-.69-.24-1.38-.34-2.07-.05-.34-.18-.59-.51-.77-.65-.35-1.27-.75-1.92-1.12-.21-.12-.25-.25-.17-.48.26-.75.51-1.5.72-2.26.05-.2,0-.47-.1-.65-.37-.64-.77-1.26-1.18-1.87-.17-.25-.13-.38.09-.58.55-.49,1.09-1,1.59-1.54.16-.18.25-.49.24-.73-.02-.72-.1-1.45-.17-2.17-.02-.24.02-.41.31-.48.68-.17,1.34-.39,2.01-.58.38-.1.65-.3.8-.67.26-.66.55-1.32.81-1.98.09-.23.2-.31.47-.25.73.18,1.47.3,2.2.46.57.12.89-.29,1.26-.57.44-.33.86-.7,1.29-1.06.16-.13.28-.14.44,0,.49.41,1.02.77,1.47,1.21.45.45.93.49,1.49.35.61-.15,1.24-.25,1.86-.4.27-.07.32.1.39.26.3.7.61,1.39.89,2.1.11.28.28.43.58.51.66.17,1.32.37,1.98.55.33.09.53.21.45.65-.12.7-.17,1.42-.16,2.13,0,.26.19.55.37.77.51.62,1.06,1.21,1.66,1.88Z"/>
      <path class="cls-1" d="M9.67,13.67c-.12-.11-.23-.2-.33-.3-.53-.53-1.05-1.06-1.59-1.58-.73-.71-.81-.7-1.53.02-.03.03-.05.06-.08.09-.3.32-.32.6,0,.92,1.04,1.05,2.09,2.1,3.14,3.14.35.35.71.31,1.03-.08.69-.83,1.39-1.67,2.08-2.5.74-.89,1.47-1.79,2.23-2.68.33-.39.71-.72,1.03-1.11.28-.33.48-.73.76-1.06.7-.83.7-.92-.12-1.61-.41-.34-.72-.32-1.07.09-.3.36-.59.73-.88,1.09-1.54,1.84-3.08,3.69-4.66,5.57Z"/>
    </g>
  </g>
</svg>