<?xml version="1.0" encoding="UTF-8"?>
<svg xmlns="http://www.w3.org/2000/svg" xmlns:xlink="http://www.w3.org/1999/xlink" width="100px" height="100px" viewBox="0 0 100 100" version="1.1">
<g id="surface1">
<rect x="0" y="0" width="100" height="100" style="fill:rgb(4.705882%,62.352943%,98.039216%);fill-opacity:1;stroke:none;"/>
<path style=" stroke:none;fill-rule:nonzero;fill:rgb(100%,100%,100%);fill-opacity:1;" d="M 67.441406 20.910156 C 67.441406 20.964844 67.441406 21.015625 67.441406 21.066406 C 67.417969 21.992188 66.945312 22.902344 66.03125 23.425781 L 22.175781 48.4375 C 20.308594 49.5 17.988281 48.15625 17.988281 46.003906 L 17.988281 32.597656 C 17.988281 31.605469 18.511719 30.691406 19.367188 30.1875 L 51.242188 11.347656 C 51.640625 11.109375 52.085938 10.980469 52.53125 10.960938 C 52.613281 10.960938 52.691406 10.957031 52.773438 10.960938 L 52.789062 10.960938 C 53.246094 10.976562 53.707031 11.109375 54.113281 11.359375 L 66.089844 18.605469 C 66.960938 19.132812 67.410156 20.015625 67.441406 20.914062 Z M 67.441406 20.910156 "/>
<path style=" stroke:none;fill-rule:nonzero;fill:rgb(100%,100%,100%);fill-opacity:1;" d="M 82.011719 40.640625 L 82.011719 40.800781 C 81.988281 41.714844 81.527344 42.617188 80.625 43.140625 L 36.378906 69.066406 C 35.519531 69.570312 34.996094 70.488281 34.996094 71.484375 L 34.996094 75.753906 C 34.996094 77.898438 32.683594 79.246094 30.8125 78.1875 L 19.40625 71.710938 C 18.53125 71.210938 17.988281 70.28125 17.988281 69.273438 L 17.988281 61.316406 C 17.988281 60.320312 18.519531 59.398438 19.375 58.898438 L 66.296875 31.488281 C 66.847656 31.164062 67.480469 31.046875 68.09375 31.132812 L 68.105469 31.132812 C 68.464844 31.183594 68.816406 31.304688 69.136719 31.496094 L 80.640625 38.316406 C 81.53125 38.84375 81.984375 39.734375 82.011719 40.636719 Z M 82.011719 40.640625 "/>
<path style=" stroke:none;fill-rule:nonzero;fill:rgb(100%,100%,100%);fill-opacity:1;" d="M 81.941406 69.550781 C 81.941406 69.609375 81.941406 69.660156 81.941406 69.714844 C 81.917969 70.628906 81.457031 71.53125 80.554688 72.058594 L 52.140625 88.664062 C 51.308594 89.148438 50.28125 89.171875 49.425781 88.722656 L 44.003906 85.875 C 43.082031 85.390625 42.503906 84.433594 42.503906 83.394531 L 42.503906 75.691406 C 42.503906 74.683594 43.046875 73.757812 43.921875 73.257812 L 66.238281 60.582031 C 66.726562 60.300781 67.277344 60.183594 67.816406 60.222656 C 67.84375 60.222656 67.867188 60.222656 67.886719 60.226562 C 68.277344 60.261719 68.660156 60.382812 69.011719 60.582031 L 80.53125 67.207031 C 81.4375 67.730469 81.902344 68.632812 81.933594 69.546875 Z M 81.941406 69.550781 "/>
</g>
</svg>
