<?xml version="1.0" encoding="UTF-8"?>
<svg id="Layer_2" xmlns="http://www.w3.org/2000/svg" viewBox="0 0 19.79 22.04">
  <defs>
    <style>
      .cls-1 {
        fill: #fff;
      }

      .cls-2 {
        fill: #00c853;
      }
    </style>
  </defs>
  <g id="Layer_1-2" data-name="Layer_1">
    <g>
      <polyline class="cls-2" points="4.92 .57 .29 8.06 4.92 20.35 6.51 21.31 12.81 19.47 18.76 16.62 19.2 15.46 19.2 14.05 16.81 9.32 14.59 3.55 10.7 1.49 4.65 .29"/>
      <g>
        <path class="cls-2" d="M19.42,13.74c-1.21-3.03-2.49-6.03-3.61-9.09-.64-1.74-1.85-2.63-3.54-3.08-1.11-.3-2.22-.62-3.28-.92-4.6-1.25-4.24-.47-4.92.48C2.81,3.19,1.53,5.24.36,7.36c-.51.92-.44,1.95-.02,2.97,1.32,3.22,2.58,6.45,3.88,9.68.75,1.87,2.13,2.47,4.02,1.72,3.13-1.24,6.26-2.49,9.38-3.74,2.06-.83,2.63-2.16,1.8-4.24ZM16.95,17.15c-2.87,1.16-5.75,2.31-8.64,3.45-1.74.69-2.96.14-3.67-1.63-1.13-2.83-2.23-5.67-3.41-8.48-.5-1.2-.45-2.34.16-3.42.92-1.64,1.9-3.26,2.94-4.83.85-1.28.91-1.52,3.39-.92.58.2,4.66,1.14,6.27,2.04.4.3.73.81.93,1.28,1.22,2.97,2.41,5.95,3.58,8.93.64,1.63.08,2.91-1.55,3.57Z"/>
        <path class="cls-1" d="M10.9,8.05l-1.86.76c.42.17.76.44,1.02.81l1.28-.52.35.86-1.21.5c.21.62.2,1.21-.03,1.78-.24.58-.7,1.08-1.38,1.51v.03s4.47,2.63,4.47,2.63l-1.36.56-4.26-2.58-.37-.91c.43-.18.82-.4,1.17-.68.64-.52.85-1.13.61-1.85l-2.42.99-.35-.86,2.34-.96c-.32-.37-.78-.53-1.36-.49-.21.01-.41.05-.61.11-.2.06-.46.16-.79.29l-.35-.86,4.77-1.96.35.86Z"/>
        <path class="cls-1" d="M7.52,3.11c-.95-.41-2.05.03-2.45.98s.03,2.05.98,2.45,2.04-.03,2.45-.98-.03-2.04-.98-2.45ZM6.29,5.99c-.65-.28-.94-1.02-.67-1.67s1.02-.94,1.67-.67c.64.28.94,1.02.67,1.67s-1.02.94-1.67.67Z"/>
      </g>
    </g>
  </g>
</svg>